# xmcd
#
# Track frame offsets:
# 150
# 23230
# 46239
# 66478
# 107201
# 142293
# 166846
# 191669
# 210582
# 228394
# 241476
# 259889
#
# Disc length: 3997 seconds
#
#
# Revision: 0
# Processed by: cddbd v1.5.1PL2 Copyright (c) Steve Scherf et al.
# Submitted via: FreeRIP 2.60 
#
DISCID=b30f9b0c
DTITLE=Paul Garner - Love vs Blues
DYEAR=2005
DGENRE=Blues
TTITLE0=Love vs Blues
TTITLE1=Louisiana Blues
TTITLE2=Tequila Amnesia
TTITLE3=Just Got Out Of Jail
TTITLE4=Blue Morning Light
TTITLE5=Dirty Dealer
TTITLE6=Some Will Tell You Their Secrets
TTITLE7=Keep On Trying
TTITLE8=Another Day In New Orleans
TTITLE9=No Truth To Tell
TTITLE10=Bread and Circuses
TTITLE11=Goodnight My Love
EXTD=
EXTT0=
EXTT1=
EXTT2=
EXTT3=
EXTT4=
EXTT5=
EXTT6=
EXTT7=
EXTT8=
EXTT9=
EXTT10=
EXTT11=
PLAYORDER=
